<svg xmlns="http://www.w3.org/2000/svg" viewBox="0 0 128 128">
  <rect width="128" height="128" rx="34" fill="#fffaf3"/>
  <path d="M18 91h92" fill="none" stroke="#22251d" stroke-width="5" stroke-linecap="round"/>
  <path d="M20 90V58l12-10 13 10v32Z" fill="#e9a4b4" stroke="#22251d" stroke-width="4" stroke-linejoin="round"/>
  <path d="M43 90V53h30v37Z" fill="#e7bc58" stroke="#22251d" stroke-width="4" stroke-linejoin="round"/>
  <path d="M51 90V73c0-8 6-14 13-14s13 6 13 14v17" fill="#fffaf3" stroke="#22251d" stroke-width="4"/>
  <path d="M76 90V47h31v43Z" fill="#55b875" stroke="#22251d" stroke-width="4" stroke-linejoin="round"/>
  <path d="M79 47 92 25l13 22Z" fill="#bfe88f" stroke="#22251d" stroke-width="4" stroke-linejoin="round"/>
  <path d="M86 90V72c0-9 5-16 11-16s11 7 11 16v18" fill="#fffaf3" stroke="#22251d" stroke-width="4"/>
  <path d="M24 106c24 7 58 7 82 0" fill="none" stroke="#d8ac6c" stroke-width="5" stroke-linecap="round"/>
</svg>
